<svg width="51" height="51" viewBox="0 0 51 51" fill="none" xmlns="http://www.w3.org/2000/svg">
<path fill-rule="evenodd" clip-rule="evenodd" d="M35.896 4.22272C38.6937 4.23108 41.3744 5.34619 43.3527 7.32446C45.331 9.30273 46.4461 11.9835 46.4544 14.7812V35.8959C46.4461 38.6937 45.331 41.3744 43.3527 43.3527C41.3744 45.331 38.6937 46.4461 35.896 46.4545H14.7812C11.9835 46.4461 9.30275 45.331 7.32446 43.3527C5.34617 41.3744 4.23107 38.6937 4.22272 35.8959V14.7812C4.23107 11.9835 5.34617 9.3028 7.32446 7.32446C9.30275 5.34619 11.9835 4.23108 14.7812 4.22278L35.896 4.22272ZM35.8959 0H14.7812C10.8645 0.0114136 7.11147 1.57239 4.34192 4.34192C1.57237 7.11151 0.0114059 10.8646 0 14.7812V35.8959C0.0114059 39.8126 1.57237 43.5657 4.34192 46.3352C7.11147 49.1048 10.8645 50.6658 14.7812 50.6771H35.8959C39.8127 50.6658 43.5657 49.1048 46.3353 46.3353C49.1048 43.5657 50.6658 39.8127 50.6772 35.8959V14.7812C50.6658 10.8645 49.1049 7.11145 46.3353 4.34192C43.5657 1.57239 39.8127 0.0114136 35.8959 0ZM39.0633 14.7812C38.2256 14.7794 37.423 14.4452 36.8316 13.8519C36.2403 13.2587 35.9086 12.455 35.9095 11.6173C35.9104 10.7797 36.2438 9.97662 36.8364 9.38464C37.429 8.79272 38.2324 8.46021 39.0701 8.46021C39.9077 8.46021 40.7111 8.79272 41.3037 9.38464C41.8963 9.97662 42.2297 10.7797 42.2306 11.6173C42.2315 12.455 41.8998 13.2587 41.3085 13.8519C40.7172 14.4452 39.9145 14.7794 39.0769 14.7812H39.0633ZM30.0313 18.3156C28.6423 17.3874 27.0092 16.892 25.3386 16.892C24.2294 16.892 23.1311 17.1105 22.1063 17.535C21.0815 17.9595 20.1503 18.5816 19.366 19.366C18.5817 20.1503 17.9595 21.0814 17.535 22.1062C17.1105 23.131 16.892 24.2294 16.892 25.3386C16.892 27.0092 17.3874 28.6422 18.3156 30.0312C19.2437 31.4203 20.5629 32.5029 22.1063 33.1422C23.6497 33.7815 25.348 33.9487 26.9865 33.6228C28.6249 33.2969 30.13 32.4924 31.3112 31.3112C32.4925 30.1299 33.297 28.6249 33.6229 26.9865C33.9488 25.348 33.7816 23.6497 33.1422 22.1062C32.5029 20.5628 31.4203 19.2437 30.0313 18.3156ZM18.2999 14.8044C20.3834 13.4124 22.8329 12.6693 25.3386 12.6693C27.0024 12.6693 28.6498 12.9969 30.187 13.6337C31.7241 14.2703 33.1207 15.2036 34.2972 16.38C35.4736 17.5565 36.4068 18.9531 37.0435 20.4902C37.6802 22.0273 38.0079 23.6748 38.0079 25.3386C38.0079 27.8444 37.2649 30.2938 35.8727 32.3773C34.4806 34.4607 32.502 36.0846 30.187 37.0435C27.8719 38.0024 25.3246 38.2533 22.8669 37.7644C20.4093 37.2756 18.1519 36.069 16.3801 34.2971C14.6082 32.5253 13.4016 30.2678 12.9128 27.8102C12.4239 25.3527 12.6748 22.8052 13.6337 20.4902C14.5926 18.1752 16.2165 16.1965 18.2999 14.8044Z" fill="#F1F1F1"/>
</svg>
